<?xml version="1.0" standalone="no"?>
<!DOCTYPE svg PUBLIC "-//W3C//DTD SVG 20010904//EN"
 "http://www.w3.org/TR/2001/REC-SVG-20010904/DTD/svg10.dtd">
<svg version="1.0" xmlns="http://www.w3.org/2000/svg"
 width="279.000000pt" height="203.000000pt" viewBox="0 0 279.000000 203.000000"
 preserveAspectRatio="xMidYMid meet">

<g transform="translate(0.000000,203.000000) scale(0.100000,-0.100000)"
fill="#000000" stroke="none">
<path d="M790 1904 c-93 -25 -180 -95 -222 -179 -9 -16 -46 -118 -83 -225
l-67 -195 -46 -30 c-32 -21 -55 -46 -74 -84 l-28 -53 0 -412 c0 -451 -2 -439
60 -471 38 -20 179 -20 225 -1 52 22 65 58 65 181 l0 105 423 0 422 0 1 123
c0 104 4 134 27 203 46 138 139 260 259 340 65 44 210 104 251 104 9 0 17 4
17 9 0 19 -123 367 -145 411 -30 59 -102 125 -173 158 l-57 27 -400 2 c-328 2
-410 0 -455 -13z m850 -251 c24 -22 43 -61 84 -178 l53 -150 -550 -3 c-303 -1
-552 -1 -554 1 -3 3 46 147 93 275 31 83 25 82 461 82 l383 0 30 -27z m-933
-607 c34 -30 37 -38 37 -86 0 -48 -3 -56 -37 -86 -104 -96 -257 21 -192 146
20 38 59 59 113 60 34 0 49 -6 79 -34z"/>
<path d="M2038 1190 c-261 -44 -448 -265 -448 -530 0 -338 308 -593 634 -525
219 46 376 200 421 412 27 125 11 242 -47 361 -68 139 -207 242 -371 276 -82
17 -115 18 -189 6z m266 -226 c26 -25 19 -51 -39 -149 -30 -52 -55 -96 -55
-99 0 -3 29 -6 64 -6 47 0 70 -5 86 -18 42 -34 23 -57 -177 -206 -102 -76
-194 -141 -204 -143 -9 -3 -26 4 -38 16 -25 25 -23 30 48 156 l50 90 -72 5
c-85 6 -97 12 -97 50 0 25 22 44 196 174 107 80 201 146 209 146 7 0 21 -7 29
-16z"/>
</g>
</svg>
